# xmcd
#
# Track frame offsets: 
#        300
#        27947
#        55064
#        84229
#        118117
#        144881
#        176296
#        213346
#        238533
#        267218
#
# Disc length: 3867 seconds
#
# Revision: 4
# Processed by: cddbd v1.5.2PL0 Copyright (c) Steve Scherf et al.
# Submitted via: ExactAudioCopy v0.99pb5
#
DISCID=7c0f170a
DTITLE=Various Artist - Richard Dorfmeister vs. Madrid de los Austrias - Gran
DTITLE=d Slam
DYEAR=2006
DGENRE=Electronica
TTITLE0=Zero 7 - In The Waiting Line (Dorfmeister vs. MdlA dub)
TTITLE1=Dorfmeister vs. MDLA - Boogie No More
TTITLE2=Dorfmeister vs. MDLA - Valldemossa (Edson Arantes Do Nasciment
TTITLE2=o Pelé mix)
TTITLE3=Willie Bobo - Spanish Grease (Dorfmeister vs. MdlA Muga Reserv
TTITLE3=a mix)
TTITLE4=Koop - Relaxin' At Club F****n (Dorfmeister vs. MdlA mix)
TTITLE5=Pressure Drop - Back 2 Back (Dorfmeister vs. MdlA mix)
TTITLE6=Dorfmeister vs. MDLA - Make Dis Real
TTITLE7=Dorfmeister vs. MDLA - Schnitz
TTITLE8=Groove Armada - My Friend (Dorfmeister vs. MdlA mix)
TTITLE9=Dorfmeister vs. MDLA - On The Moon Maybe
EXTD=
EXTT0=
EXTT1=
EXTT2=
EXTT3=
EXTT4=
EXTT5=
EXTT6=
EXTT7=
EXTT8=
EXTT9=
PLAYORDER=
